<svg viewBox="0 0 500 500" xmlns="http://www.w3.org/2000/svg" xmlns:bx="https://boxy-svg.com">
  <defs></defs>
  <g transform="matrix(4.52205, 0, 0, 4.521364, -1051.63269, -591.493713)">
    <g transform="matrix(1, 0, 0, 1, 11.81592, -50.995022)">
      <path style="stroke: rgb(0, 0, 0); fill: rgb(12, 137, 255); stroke-width: 0px;" d="M 257.523 181.817 L 257.523 209.09 C 257.65 216.248 262.681 218.234 266.676 218.243 L 306.278 218.43 C 326.821 218 331.31 236.363 331.31 236.363 L 331.123 219.551 L 295.444 182.377 L 257.523 181.817 Z"></path>
      <path style="stroke: rgb(0, 0, 0); fill: rgb(88, 175, 200); stroke-width: 0px;" d="M 294.359 220.75 L 294.709 245.916 C 294.792 255.754 301.971 255.092 303.31 255.256 L 331.071 255.645 L 331.049 239.44 C 331.1 239.459 323.337 220.534 308.888 220.689 L 294.359 220.75 Z"></path>
    </g>
    <g transform="matrix(-0.999839, 0.018036, -0.018036, -0.999839, 568.424072, 417.220306)" bx:origin="0.525 0.492">
      <path style="stroke: rgb(0, 0, 0); fill: rgb(12, 137, 255); stroke-width: 0px;" d="M 257.523 181.817 L 257.523 209.09 C 257.65 216.248 262.681 218.234 266.676 218.243 L 306.278 218.43 C 326.821 218 331.31 236.363 331.31 236.363 L 331.123 219.551 L 295.444 182.377 L 257.523 181.817 Z"></path>
      <path style="stroke: rgb(0, 0, 0); fill: rgb(88, 175, 200); stroke-width: 0px;" d="M 294.359 220.75 L 294.709 245.916 C 294.792 255.754 301.971 255.092 303.31 255.256 L 331.071 255.645 L 331.049 239.44 C 331.1 239.459 323.337 220.534 308.888 220.689 L 294.359 220.75 Z"></path>
    </g>
  </g>
</svg>